<svg xmlns="http://www.w3.org/2000/svg" xmlns:xlink="http://www.w3.org/1999/xlink" viewBox="0,0,255.99609,255.99609" width="24px" height="24px"><g fill="#000000" fill-rule="nonzero" stroke="none" stroke-width="1" stroke-linecap="butt" stroke-linejoin="miter" stroke-miterlimit="10" stroke-dasharray="" stroke-dashoffset="0" font-family="none" font-weight="none" font-size="none" text-anchor="none" style="mix-blend-mode: normal"><g transform="translate(42.73333,22.4) scale(10.66667,10.66667)"><path d="M9.40625,2l0.59375,1v5l-2,1v-5l0.59375,-1h-3.09375l0.59375,1v5l-2,-1l-1,-1l1,2l2,1v3l-0.59375,1h3.1875l-0.59375,-1v-3l2,-1v5l-0.5,1h3.09375l-0.5,-1v-6c0,0 1.89844,-0.89844 2,-1v5l-1,-1l1.125,4.5l-1,-0.5l1.78125,7v-4.3125l1,0.3125l-1,-4l1,1v-4c0.30078,0.39844 1,1 1,1c0.30078,0 2.19922,-0.51172 2.5,-0.8125l0.5,-4.1875c0,0 -0.90625,-2.21094 -1.40625,-2.8125c-0.10156,0 -1.99219,0.71094 -2.59375,0.8125v-1l-2,1v1l-2,1v-4l0.59375,-1zM17.8125,5.40625c0,0 0.28125,3.39453 0.28125,3.59375v1c0,0 -1,1.10156 -1,1l-1,-1v-4c0.39844,-0.10156 1.61719,-0.69531 1.71875,-0.59375z"></path></g></g></svg>